<svg xmlns="http://www.w3.org/2000/svg" width="217" height="65.001" viewBox="0 0 217 65.001">
  <g id="Group_4" data-name="Group 4" transform="translate(-495 130)">
    <path id="Path_1" data-name="Path 1" d="M61.147,24.171a38.358,38.358,0,0,0-5.9-.443c-.248.012-.5.026-.738.042.735-1.269,1.4-2.408,2.023-3.669a32.11,32.11,0,0,1,9.8-.258S64.8,20.938,61.147,24.171Zm-8.021-.286a33.927,33.927,0,0,0-4,.63A20.989,20.989,0,0,0,50.166,21.6c.584-.229.3-1.226.945-1.441,1.09-.311,5.07-1.312,6.053-1.5-.6,1.213-1.646,5.889-4.038,5.228m-1.612-9.812a28.926,28.926,0,0,1,8.781-3.341S58.7,12.6,55.6,18.878c-.99.173-1.86.393-2.942.673q-1.132.353-2.153.735a53.748,53.748,0,0,0,1.012-6.214M62.541,24.415c4.569-4.137,6.47-5.061,6.47-5.061s-4.408-1.719-11.847-.7l.1-.212C60.839,11.131,62.682,9.2,62.682,9.2s-4.572-.074-11.008,3.287c.9-7.955,1.968-10.358,1.968-10.358s-5.67,1.955-11.73,10.448c-.316.491-.611.974-.89,1.447l.2,1.922c.329-.613.028-.423.426-1.073,5.148-7.61,9.982-10.242,9.982-10.242a64.684,64.684,0,0,0-1.361,8.535c-.969.554-1.806,1.182-2.836,1.9a27.059,27.059,0,0,0-5.679,6.121l.164.141a23.6,23.6,0,0,1,5.391-5.89c1.02-.752,3.422-2.386,4.368-2.953a76.426,76.426,0,0,1-1.17,7.8,29.861,29.861,0,0,0-8.328,5.1C43.665,23.855,47.07,22.506,50.5,21a29.251,29.251,0,0,1-1.376,3.519,27.025,27.025,0,0,0-6.755,2.8l.121.868a21.923,21.923,0,0,1,5.623-2.9c-.236,1.529-1.438,3.931-5.482,4.6l.105,1.035c3.041-.942,4.39-3.044,5.752-5.469,1.159-.288,4.583-1.507,6.022-1.679C52.3,27.947,45.041,34.2,42.792,31.449l.1,1.02c5.382.119,8.257-3.29,10.915-7.531l.459-.035c.981-1.175,6.6-.714,8.271-.488-.295.272-2.306,2.651-2.626,2.951-4.4,4.135-13.237,10.383-16.945,6.167l.115.792c7.169,2.239,12.753-3.592,17.6-8.192.257-.245.505-.313.749-.54a28.417,28.417,0,0,1,6.893,2s-2.3.653-8.511,4.045c-5.089,2.778-11,6.249-16.686,3.146l.125,1.243c6.141,2.944,12.555-.853,18.1-3.914,7.146-3.95,9.773-4.474,9.773-4.474a23.5,23.5,0,0,0-8.587-3.222" transform="translate(494.848 -130)" fill="#264092" fill-rule="evenodd"/>
    <path id="Path_2" data-name="Path 2" d="M7.471,19.842a32.035,32.035,0,0,1,9.8.258c.623,1.26,1.29,2.4,2.024,3.669-.243-.015-.488-.029-.738-.042a38.369,38.369,0,0,0-5.9.443C9,20.938,7.471,19.842,7.471,19.842m9.168-1.187c.981.193,4.965,1.193,6.053,1.5.643.217.361,1.213.945,1.441a21.128,21.128,0,0,0,1.038,2.913,34.265,34.265,0,0,0-4-.628c-2.392.659-3.432-4.014-4.038-5.229M23.3,20.286c-.682-.255-1.4-.5-2.15-.735q-1.457-.4-2.942-.675c-3.106-6.276-4.7-8.145-4.7-8.145a28.91,28.91,0,0,1,8.779,3.343A54.138,54.138,0,0,0,23.3,20.286ZM2.677,27.637s2.624.526,9.773,4.473c5.543,3.064,11.954,6.857,18.1,3.916l.127-1.243c-5.69,3.1-11.6-.368-16.687-3.148-6.212-3.389-8.51-4.044-8.51-4.044a28.414,28.414,0,0,1,6.891-2c.243.227.491.3.749.538,4.848,4.6,10.433,10.431,17.6,8.193L31,33.368c-3.709,4.216-12.707-1.866-17.109-6-.319-.3-2.331-2.681-2.626-2.951,1.668-.226,7.29-.687,8.268.487l.462.036c2.657,4.24,5.53,7.648,10.913,7.531l.1-1.02c-2.249,2.745-9.227-3.4-11.72-7.679,1.437.17,4.83,1.526,5.989,1.814,1.361,2.427,2.742,4.392,5.785,5.335l.105-1.037c-4.045-.669-5.248-3.072-5.484-4.6a21.81,21.81,0,0,1,5.622,2.894l.122-.867a26.973,26.973,0,0,0-6.755-2.8A29.312,29.312,0,0,1,23.3,20.993c3.435,1.512,6.839,2.86,8.328,4.391a29.767,29.767,0,0,0-8.328-5.1,77.392,77.392,0,0,1-1.17-7.8c.945.566,3.35,2.2,4.371,2.953a23.614,23.614,0,0,1,5.389,5.89l.164-.139a26.987,26.987,0,0,0-5.679-6.121c-1.029-.72-1.866-1.349-2.837-1.9a64.591,64.591,0,0,0-1.359-8.534s4.833,2.631,9.98,10.242c.4.65.1.46.428,1.073l.194-1.924c-.276-.474-.574-.955-.887-1.445C25.831,4.084,20.159,2.131,20.159,2.131s1.074,2.4,1.969,10.355c-6.431-3.358-11-3.284-11-3.284s1.844,1.928,5.414,9.244l.1.211c-7.44-1.02-11.847.7-11.847.7s1.9.922,6.471,5.061a23.45,23.45,0,0,0-8.589,3.219" transform="translate(494.848 -130)" fill="#264092" fill-rule="evenodd"/>
    <path id="Path_3" data-name="Path 3" d="M42.7,42.844l-5.727-14.9-5.727,14.9,4.084,3.606.074-6.367,1.333-1.114,1.767.743.036,2.523L38.286,46.9l2.133-2.2Z" transform="translate(494.848 -130)" fill="#264092" fill-rule="evenodd"/>
    <path id="Path_4" data-name="Path 4" d="M37,48.837s-.612,2.625,1.964,2.512c2-.087,7.536-1.057,9.743-1.439s6.622,1.2,3.915,6.325C51.162,58.636,46,58.926,40.627,55.2S32.4,49.454,30.343,48.533C27.615,47.311,20.937,46.1,19.6,52.8c-.69,4.736,4.455,5.672,4.455,5.672s-3.567-1.13-3.622-4.638c-.037-2.408,2.353-6.242,7.184-4.6,4.87,1.659,4.848,2.278,11.8,7.413,4.331,2.9,11.368,5.259,14.7.413,2-3.312.832-7.867-3.624-8.405-3.415-.415-3.163.952-10.783,2.071-2.582.364-2.7-.6-2.713-1.891" transform="translate(494.848 -130)" fill="#1b2133" fill-rule="evenodd"/>
    <g id="Group_1" data-name="Group 1" transform="translate(494.848 -130)">
      <path id="Path_5" data-name="Path 5" d="M32.787,59.051,28.3,56.98A2.942,2.942,0,0,0,24.4,58.4l-.064.138,1.824.809a1.556,1.556,0,0,1,1.992.862c1.166.509,1.721.8,1.721.8l-.084.181-1.716-.775a1.609,1.609,0,0,1-1.995-.836c-1.293-.593-1.693-.8-1.82-.873l-.037.077a2.915,2.915,0,0,0,1.426,3.88l4.49,2.071a2.942,2.942,0,0,0,3.9-1.419l.177-.381a2.912,2.912,0,0,0-1.426-3.877" fill="#1b2133" fill-rule="evenodd"/>
    </g>
    <path id="Path_6" data-name="Path 6" d="M37.02,38.695H37c-2.012,0-1.829,2.34-1.829,2.34v3.854c-.741-1.445-4.517-3.716-4.517-3.716L33.485,13.3l-1.373.033L29.23,42.378s6.18,3.3,7.347,7.63V41.567a.972.972,0,1,1,.825,0v8.436c1.472-4.813,7.206-7.625,7.206-7.625s-2.032-21.339-2.858-29.088H40.557l.33,3.261,2.5,24.615s-3.776,2.27-4.518,3.716V41.032s.166-2.337-1.829-2.337Z" transform="translate(494.848 -130)" fill="#ef951e" fill-rule="evenodd"/>
    <g id="Group_2" data-name="Group 2" transform="translate(494.848 -130)">
      <path id="Path_7" data-name="Path 7" d="M5.32,19.446s3.923-1.271,10.557-.254q1.024,2.1,2.182,4.132-.4-.026-.8-.046a41.447,41.447,0,0,0-6.355.478A32.386,32.386,0,0,0,5.32,19.446Zm6.329-10s3.965.17,9.641,3.248a60.46,60.46,0,0,0,1.091,6.871q-1.15-.427-2.322-.791-1.659-.43-3.348-.727c-3.348-6.765-5.062-8.6-5.062-8.6M22.743,20.987a22.873,22.873,0,0,0,1.121,3.138,36.6,36.6,0,0,0-4.312-.678q-1.144-1.954-2.142-3.988,1.692.332,3.351.808C21.455,20.5,22.114,20.741,22.743,20.987ZM12.343,31.8c-6.7-3.656-9.174-4.182-9.174-4.182A22.431,22.431,0,0,1,10.6,25.113c.264.246.53.5.806.758,5.275,5,12.082,11.538,19.9,8.939l.124-1.216c-7.249,2.637-13.5-3.3-18.288-7.8q-.494-.464-.993-.922a38.923,38.923,0,0,1,6.177-.325l.5.04c2.9,4.624,6.764,8.515,12.682,8.291l.112-1.1c-5.206.176-8.66-3.084-11.253-7.037a34.307,34.307,0,0,1,4.193.751A11.677,11.677,0,0,0,31.66,31.27l.112-1.114a10.551,10.551,0,0,1-5.544-4.2,19.364,19.364,0,0,1,5.688,2.784l.132-1.3a22.724,22.724,0,0,0-6.693-2.948,18.642,18.642,0,0,1-1.178-2.913,23.908,23.908,0,0,1,7.928,5.3l.149-1.466a27.229,27.229,0,0,0-8.494-5.3,51.947,51.947,0,0,1-1.116-6.646q1.641.985,3.184,2.12a31.206,31.206,0,0,1,6.7,7.148l.181-1.771a34.862,34.862,0,0,0-7.014-7.018q-1.571-1.1-3.235-2.051c-.862-7.158-1.821-9.375-1.821-9.375s5.741,2.3,11.29,10.507q.749,1.223,1.344,2.365l.214-2.1q-.542-.943-1.132-1.859C25.82,2.284,19,0,19,0s1.158,2.591,2.124,11.163C14.184,7.542,9.253,7.622,9.253,7.622s1.989,2.078,5.836,9.964l.112.228c-8.017-1.1-12.769.752-12.769.752s2.049,1,6.975,5.455A25.23,25.23,0,0,0,.152,27.492s2.829.566,10.534,4.822c6.039,3.337,13.762,7.661,20.434,4.29l.136-1.354c-6.181,3.558-13.364-.418-18.915-3.448" fill="#ef951e" fill-rule="evenodd"/>
    </g>
    <path id="Path_8" data-name="Path 8" d="M62.93,23.756a41.46,41.46,0,0,0-6.355-.477q-.4.019-.8.045,1.158-2.03,2.182-4.132c6.634-1.017,10.559.254,10.559.254a32.418,32.418,0,0,0-5.589,4.31m-8.644-.308a36.656,36.656,0,0,0-4.312.678,22.558,22.558,0,0,0,1.121-3.138c.629-.248,1.288-.488,1.984-.72q1.657-.475,3.349-.808-1,2.032-2.142,3.988M52.548,12.7c5.678-3.078,9.641-3.247,9.641-3.247s-1.714,1.837-5.062,8.6q-1.688.3-3.348.726-1.171.364-2.32.792A61.2,61.2,0,0,0,52.548,12.7ZM64.43,24.021c4.926-4.46,6.975-5.455,6.975-5.455s-4.751-1.853-12.769-.752l.112-.228C62.6,9.7,64.586,7.62,64.586,7.62s-4.931-.079-11.865,3.543C53.686,2.591,54.842,0,54.842,0S48.018,2.284,41.484,11.439c-.341.529-.657,1.048-.958,1.558l.211,2.072c.355-.659.744-1.34,1.175-2.041C47.458,4.825,53.2,2.52,53.2,2.52s-.959,2.219-1.821,9.377q-1.664.952-3.238,2.051a35.276,35.276,0,0,0-6.832,6.772l.178,1.747a31.754,31.754,0,0,1,6.522-6.881c1.1-.809,2.164-1.509,3.184-2.119a52.451,52.451,0,0,1-1.116,6.644,27.482,27.482,0,0,0-8.308,5.13l.147,1.447a24.228,24.228,0,0,1,7.744-5.109,18.392,18.392,0,0,1-1.181,2.913,23.014,23.014,0,0,0-6.5,2.823l.13,1.289a19.6,19.6,0,0,1,5.5-2.645,10.549,10.549,0,0,1-5.347,4.129l.112,1.117a11.678,11.678,0,0,0,6.913-5.719,34.022,34.022,0,0,1,4.193-.751c-2.557,3.9-5.955,7.127-11.047,7.042l.11,1.1c5.8.127,9.615-3.724,12.478-8.294l.5-.039a38.9,38.9,0,0,1,6.177.323q-.479.439-.992.922C55.957,30.25,49.785,36.115,42.627,33.67l.123,1.209c7.727,2.413,14.462-4.05,19.685-9.007l.807-.758a22.432,22.432,0,0,1,7.429,2.507s-2.48.526-9.174,4.182c-5.484,2.995-12.566,6.913-18.7,3.569l.135,1.339c6.622,3.173,14.245-1.1,20.22-4.4,7.7-4.256,10.534-4.822,10.534-4.822A25.3,25.3,0,0,0,64.43,24.021Z" transform="translate(494.848 -130)" fill="#ef951e" fill-rule="evenodd"/>
    <path id="Union_4" data-name="Union 4" d="M75.029,23.357V9.422h-3.51V23.357h-3.51V9.422h-2.78v5.335a3.328,3.328,0,0,1-1.017,2.667,3.878,3.878,0,0,1-2.62.872,6.9,6.9,0,0,1-2.23-.348V15.206a2.51,2.51,0,0,0,1.229.3q1.1,0,1.1-1.145V9.422H56.855V23.357H53.347V9.422h-1v0H49.838V23.356H46.3V19.118a2.942,2.942,0,0,1-1.429,1.161,5.593,5.593,0,0,1-2.256.435h0a5.826,5.826,0,0,1-4.275-1.795,8.094,8.094,0,0,1-2.167-4.936q3.91-.545,3.91-2.591a2.658,2.658,0,0,0-.725-1.968h-4.41v0h-1V23.357h-3.46V16.851H26.522v3.041H23.54l-.9-1.993a7.022,7.022,0,0,1-.727-2.293,1.328,1.328,0,0,1,1.128-1.372V9.422H12.659V12.14a3.878,3.878,0,0,1,2.657-.972,4.709,4.709,0,0,1,4.964,4.91,4.708,4.708,0,0,1-1.553,3.7,5.776,5.776,0,0,1-3.986,1.384,5.034,5.034,0,0,1-.576-.026V18.321a2.512,2.512,0,0,0,.4.024,2.042,2.042,0,0,0,1.593-.622,2.28,2.28,0,0,0,.563-1.594,2.314,2.314,0,0,0-.527-1.535,1.865,1.865,0,0,0-1.526-.635,1.844,1.844,0,0,0-1.444.635,2.451,2.451,0,0,0-.564,1.684v7.078H9.1V20.464a3.865,3.865,0,0,1-2.658.949A4.716,4.716,0,0,1,1.479,16.5a4.714,4.714,0,0,1,1.554-3.7A5.78,5.78,0,0,1,7.02,11.417a5.3,5.3,0,0,1,.575.024v2.817a2.583,2.583,0,0,0-.4-.025,2.036,2.036,0,0,0-1.592.623,2.286,2.286,0,0,0-.566,1.6,2.332,2.332,0,0,0,.527,1.534,1.874,1.874,0,0,0,1.53.635,1.84,1.84,0,0,0,1.441-.635A2.44,2.44,0,0,0,9.1,16.3V9.422H0V6.63H30l-.009-.013a4.638,4.638,0,0,1-.451-.923,3.927,3.927,0,0,1-.288-1.482,3.805,3.805,0,0,1,1.328-3.129A4.95,4.95,0,0,1,33.817,0a7.046,7.046,0,0,1,3.108.623V3.74a4.915,4.915,0,0,0-2.2-.65h0a1.9,1.9,0,0,0-1.3.462,1.581,1.581,0,0,0-.529,1.258,2.876,2.876,0,0,0,.69,1.82h2.87v0H50.84v0H53.1l-1.68-2.444a2.153,2.153,0,0,0-1.9-1.021,5.577,5.577,0,0,0-1.606.249V.475A9.882,9.882,0,0,1,49.812.3,6.019,6.019,0,0,1,52.4.849,4.853,4.853,0,0,1,54.25,2.593L56.881,6.63H75v-1.5a1.951,1.951,0,0,0-.488-1.419,1.866,1.866,0,0,0-1.392-.5q-1.755,0-1.756,1.919v.624H67.809V5.01a4.251,4.251,0,0,1,1.5-3.54,5.928,5.928,0,0,1,3.812-1.2A6.168,6.168,0,0,1,77,1.458a4.168,4.168,0,0,1,1.543,3.529V6.63h2.533V9.422H78.564V23.357ZM43.569,11.568a3.868,3.868,0,0,1-.914,2.654,5.276,5.276,0,0,1-2.368,1.507,2.69,2.69,0,0,0,2.93,1.894,3.055,3.055,0,0,0,2.257-.823,3.334,3.334,0,0,0,.826-2.465V9.424H43.042A3.833,3.833,0,0,1,43.569,11.568ZM26.522,14.059h3.963V9.422H26.522Z" transform="translate(577.108 -116.392)" fill="#ef951e"/>
    <g id="Group_3" data-name="Group 3" transform="translate(494.848 -130)">
      <path id="Union_3" data-name="Union 3" d="M-466.922,146.854l-4.965-6.382V137.73h1.907q2.3,0,2.3-1.895v-2.916h-6.842v13.935h-3.534V132.918h-3.511v13.935h-3.459v-6.632h-3.835v3.116h-3.06l-.9-1.92a5.682,5.682,0,0,1-.675-2.192,1.5,1.5,0,0,1,1.153-1.621V134.04a1.03,1.03,0,0,0-1.153-1.173,3.031,3.031,0,0,0-1.354.349V130.5a4.566,4.566,0,0,1,2.154-.5q3.837,0,3.839,3.615v3.813h3.835v-7.3h13.009v0h8.951v0h16.745v2.793h-2.507v13.935h-3.56v-8.975h-1.756a3.886,3.886,0,0,0-2.593.761,2.735,2.735,0,0,0-.89,2.205q0,3.042,2.632,3.041a2.718,2.718,0,0,0,.427-.024v2.917c-.333.03-.668.046-1,.049a5.256,5.256,0,0,1-4.136-1.656,6.29,6.29,0,0,1-1.48-4.352,5.369,5.369,0,0,1,1.755-4.213,7.557,7.557,0,0,1,5.189-1.571h1.855v-2.119h-11.781v3.116a4.583,4.583,0,0,1-.841,2.8,3.731,3.731,0,0,1-2.418,1.433,1.56,1.56,0,0,1-.376.051l5.14,6.53Z" transform="translate(663.468 -109.888)" fill="#264092"/>
      <path id="Union_2" data-name="Union 2" d="M-393.959,140.62l-1.118-1.579h1.1l1.321,1.579Zm-55.788-2.347a1.545,1.545,0,0,1-.626-1.217,1.411,1.411,0,0,1,.6-1.165,1.134,1.134,0,0,1-.639-1.021.868.868,0,0,1,.086-.428.881.881,0,0,1,.28-.334,1.558,1.558,0,0,1,.945-.266h1.442v-.6h-3.971v5.19h-1.083v-5.19h-3.863v1.129a1.441,1.441,0,0,1,1.017-.394,1.752,1.752,0,0,1,1.294.486,1.7,1.7,0,0,1,.49,1.259,1.694,1.694,0,0,1-.558,1.333,2.053,2.053,0,0,1-1.409.495,1.7,1.7,0,0,1-.213-.009v-.873a1.1,1.1,0,0,0,.168.009.886.886,0,0,0,.361-.06.894.894,0,0,0,.307-.2.956.956,0,0,0,.2-.311.911.911,0,0,0,.059-.364.909.909,0,0,0-.237-.644.8.8,0,0,0-.288-.2.816.816,0,0,0-.344-.059.8.8,0,0,0-.328.062.821.821,0,0,0-.273.191.911.911,0,0,0-.186.3.941.941,0,0,0-.056.349v2.689h-1.088v-1.176a1.436,1.436,0,0,1-1.017.387,1.753,1.753,0,0,1-1.289-.487,1.693,1.693,0,0,1-.495-1.258,1.691,1.691,0,0,1,.558-1.331,2.045,2.045,0,0,1,1.411-.5,2.006,2.006,0,0,1,.211.009v.873a1.14,1.14,0,0,0-.167-.009.884.884,0,0,0-.362.062.882.882,0,0,0-.306.2.919.919,0,0,0-.2.312.926.926,0,0,0-.059.363.909.909,0,0,0,.236.643.825.825,0,0,0,.293.2.827.827,0,0,0,.349.059.785.785,0,0,0,.323-.064.783.783,0,0,0,.269-.19.905.905,0,0,0,.239-.647v-2.637h-2.875v0h-.978v5.19h-1.073v-5.192h-.479v0h-.979v5.19h-1.1v-3.547a1.526,1.526,0,0,0-.286-.026.858.858,0,0,0-.673.243,1.123,1.123,0,0,0-.223.774v.617h-1.09v-.635c0-.6-.214-.9-.639-.9a.638.638,0,0,0-.3.065.644.644,0,0,0-.235.2,1.29,1.29,0,0,0-.205.8,1.584,1.584,0,0,0,.375,1.107,1.462,1.462,0,0,0,1.132.408,2.366,2.366,0,0,0,.342-.018v.882a4.134,4.134,0,0,1-.472.028,2.4,2.4,0,0,1-1.783-.671,2.386,2.386,0,0,1-.666-1.755,2.1,2.1,0,0,1,.454-1.408,1.551,1.551,0,0,1,1.246-.531,1.516,1.516,0,0,1,.873.23.959.959,0,0,1,.271.261.955.955,0,0,1,.149.346,1.242,1.242,0,0,1,1.38-.893,1.448,1.448,0,0,1,.348.046v-.807H-470.5v-.873h6.939v0h.887l-.674-.992a.843.843,0,0,0-.317-.314.843.843,0,0,0-.432-.109,1.993,1.993,0,0,0-.544.083v-.911a4.132,4.132,0,0,1,.626-.063,1.748,1.748,0,0,1,1.543.836l.961,1.47v0h.481v0h8.323v-.633a1.637,1.637,0,0,1,.513-1.26,2.007,2.007,0,0,1,1.418-.477,6.6,6.6,0,0,1,1.628.206,17.562,17.562,0,0,1,1.864.611v.976a10.813,10.813,0,0,0-1.871-.644,7.005,7.005,0,0,0-1.593-.239.887.887,0,0,0-.651.226.825.825,0,0,0-.177.287.821.821,0,0,0-.049.333v.615h5.995v0h5.544v.873h-.979v5.19h-1.082v-3.39h-.739q-1.412,0-1.413,1.222a1.4,1.4,0,0,0,.275.918,1.026,1.026,0,0,0,.832.331,1.287,1.287,0,0,0,.176-.009v.9c-.111.012-.221.018-.333.019a1.916,1.916,0,0,1-1.5-.6,2.231,2.231,0,0,1-.544-1.564,1.977,1.977,0,0,1,.621-1.529,2.6,2.6,0,0,1,1.826-.574h.794v-.91h-3.982v0h-.454v1.443h-2.309c-.271,0-.406.1-.406.314a.643.643,0,0,0,.313.532,3.609,3.609,0,0,1,.823-.093,2,2,0,0,1,1.288.387,1.161,1.161,0,0,1,.487.946,1.211,1.211,0,0,1-.094.523h-1.062a.868.868,0,0,0,.111-.468.434.434,0,0,0-.2-.358.907.907,0,0,0-.558-.148,1.338,1.338,0,0,0-.812.212.624.624,0,0,0-.211.23.638.638,0,0,0-.076.3.726.726,0,0,0,.337.619,1.9,1.9,0,0,0,1.058.233,5.566,5.566,0,0,0,1.229-.175v.892a6.189,6.189,0,0,1-1.286.156A2.733,2.733,0,0,1-449.747,138.272Zm43.417.162v-5.192h-1.459v5.19h-1.083v-5.19h-1.236v1.95a1.732,1.732,0,0,1-.462,1.3,1.8,1.8,0,0,1-1.3.445,1.519,1.519,0,0,1-1.708-1.729v-1.966h-1.11v1.2a1.517,1.517,0,0,1-.346,1.033,1.451,1.451,0,0,1-.967.473.4.4,0,0,1-.129.019l1.922,2.462h-1.3L-417.38,136v-.854h.664q.952,0,.953-.762v-1.139h-5.064v1.129a1.44,1.44,0,0,1,1.017-.394,1.755,1.755,0,0,1,1.293.486,1.7,1.7,0,0,1,.49,1.259,1.7,1.7,0,0,1-.558,1.333,2.052,2.052,0,0,1-1.411.495,1.665,1.665,0,0,1-.211-.009v-.873a1.024,1.024,0,0,0,.166.009.9.9,0,0,0,.364-.059.914.914,0,0,0,.307-.2.931.931,0,0,0,.194-.312.907.907,0,0,0,.059-.363.916.916,0,0,0-.236-.644.819.819,0,0,0-.288-.2.83.83,0,0,0-.346-.059.8.8,0,0,0-.326.063.785.785,0,0,0-.272.19.912.912,0,0,0-.186.3.941.941,0,0,0-.056.349v2.689h-1.089v-1.176a1.441,1.441,0,0,1-1.016.387,1.751,1.751,0,0,1-1.289-.487,1.687,1.687,0,0,1-.5-1.258,1.691,1.691,0,0,1,.559-1.331,2.035,2.035,0,0,1,1.409-.5,2.078,2.078,0,0,1,.214.009v.873a1.14,1.14,0,0,0-.167-.009.913.913,0,0,0-.364.061.9.9,0,0,0-.307.2.931.931,0,0,0-.194.312.91.91,0,0,0-.059.363.909.909,0,0,0,.236.643.823.823,0,0,0,.293.2.838.838,0,0,0,.348.058.779.779,0,0,0,.592-.254.905.905,0,0,0,.241-.647v-2.637h-3.373v-.873h18.95v-.635a.774.774,0,0,0-.044-.313.785.785,0,0,0-.164-.27.76.76,0,0,0-.257-.16.762.762,0,0,0-.3-.046c-.489,0-.732.263-.732.789v.2h-1.091V131.7a1.515,1.515,0,0,1,.519-1.249,1.986,1.986,0,0,1,1.3-.422,2.059,2.059,0,0,1,1.321.418,1.5,1.5,0,0,1,.527,1.246v.68l0,0h.49v0h6.329v0h5.36v.871h-.981v5.191h-1.062v-2.462h-1.635v1.168h-.926l-.293-.653a2.365,2.365,0,0,1-.259-.835.473.473,0,0,1,.406-.5v-1.912h-1.589v5.19H-400.5v-1.643a1.26,1.26,0,0,1-.562.441,2.1,2.1,0,0,1-.85.166,2.116,2.116,0,0,1-1.536-.63,2.839,2.839,0,0,1-.783-1.749q1.47-.232,1.469-1.012a1.068,1.068,0,0,0-.275-.763h-1.229v0h-.979v5.19Zm4.639-4.383a1.549,1.549,0,0,1-1.276,1.525,1.171,1.171,0,0,0,.43.635,1.282,1.282,0,0,0,.79.238,1.262,1.262,0,0,0,.91-.322,1.217,1.217,0,0,0,.336-.927v-1.957h-1.4A1.41,1.41,0,0,1-401.692,134.051Zm-10.8,1.221c0,.5.217.753.646.753.445,0,.667-.25.667-.753h0v-2.03h-1.311Zm15.734-.175h1.635v-1.856h-1.635Zm-32.364,3.335v-2.462h-1.635v1.168h-.923l-.3-.653a2.392,2.392,0,0,1-.26-.835.474.474,0,0,1,.406-.5v-1.912h-1.588v5.191h-1.063v-2.462h-1.634v1.168h-.923l-.3-.653a2.385,2.385,0,0,1-.259-.835.475.475,0,0,1,.406-.5v-1.912H-438.3v-.871h11.216v.871h-.98v5.191Zm-1.639-3.335h1.639v-1.856h-1.639Zm-5.357,0h1.636v-1.856h-1.636Zm46.634.95,0-.929h21.559v.929Zm-105.365,0v-.929h21.558v.929Zm52.979-4.4a.636.636,0,0,1-.216-.144.631.631,0,0,1-.141-.213.66.66,0,0,1-.045-.251.652.652,0,0,1,.046-.252.65.65,0,0,1,.142-.214.635.635,0,0,1,.216-.14.642.642,0,0,1,.253-.045.657.657,0,0,1,.472.186.617.617,0,0,1,.147.212.622.622,0,0,1,.047.253.618.618,0,0,1-.047.252.629.629,0,0,1-.147.212.645.645,0,0,1-.216.142.639.639,0,0,1-.256.048h-.02A.635.635,0,0,1-441.868,131.647Z" transform="translate(581.247 -89.228)" fill="#1b2133"/>
    </g>
  </g>
</svg>
